<?xml version="1.0" standalone="no"?>
<!DOCTYPE svg PUBLIC "-//W3C//DTD SVG 20010904//EN"
 "http://www.w3.org/TR/2001/REC-SVG-20010904/DTD/svg10.dtd">
<svg version="1.0" xmlns="http://www.w3.org/2000/svg"
 width="105.000000pt" height="101.000000pt" viewBox="0 0 105.000000 101.000000"
 preserveAspectRatio="xMidYMid meet">

<g transform="translate(0.000000,101.000000) scale(0.100000,-0.100000)"
fill="#af0039" stroke="none">
<path d="M455 1001 c-84 -22 -154 -80 -196 -161 -32 -61 -32 -181 0 -259 34
-84 104 -184 189 -272 l77 -81 78 81 c146 153 210 276 211 406 1 68 -3 87 -26
130 -51 96 -136 153 -241 160 -34 2 -75 1 -92 -4z m139 -180 c38 -26 55 -57
56 -104 1 -100 -99 -159 -190 -112 -78 41 -80 177 -2 219 38 21 101 20 136 -3z"/>
<path d="M120 240 c-60 -121 -110 -222 -110 -225 0 -3 232 -5 515 -5 283 0
515 2 515 5 0 3 -50 104 -110 225 -95 190 -113 220 -133 220 -14 0 -29 -11
-40 -29 -17 -29 -17 -30 5 -33 19 -2 38 -33 100 -158 42 -85 77 -158 77 -162
1 -5 -186 -8 -414 -8 -228 0 -415 3 -414 8 0 4 35 77 77 162 62 125 81 156
100 158 22 3 22 4 5 33 -11 18 -26 29 -40 29 -20 0 -38 -30 -133 -220z"/>
</g>
</svg>
