<?xml version="1.0" standalone="no"?>
<!DOCTYPE svg PUBLIC "-//W3C//DTD SVG 20010904//EN"
 "http://www.w3.org/TR/2001/REC-SVG-20010904/DTD/svg10.dtd">
<svg version="1.0" xmlns="http://www.w3.org/2000/svg"
 width="41.000000pt" height="40.000000pt" viewBox="0 0 41.000000 40.000000"
 preserveAspectRatio="xMidYMid meet">

<g transform="translate(0.000000,40.000000) scale(0.100000,-0.100000)"
fill="#af0039" stroke="none">
<path d="M31 364 c-45 -57 -15 -152 74 -240 68 -66 149 -114 193 -114 46 0 90
25 98 56 6 22 1 32 -32 60 -47 40 -54 41 -82 9 -26 -30 -29 -29 -106 42 -57
52 -68 80 -41 103 8 7 15 18 15 24 0 15 -72 86 -87 86 -6 0 -21 -12 -32 -26z"/>
</g>
</svg>
